<svg width="300" height="158" viewBox="0 0 300 158" fill="none" xmlns="http://www.w3.org/2000/svg">
<path d="M40.3606 1.68H63.8406V5.8H40.3606V1.68ZM50.3206 17.88H55.6406V22.36H50.3206V17.88ZM60.6406 1.68H65.8806V4.92C65.8806 8.16 65.8806 11.6 64.9206 15.96L59.6806 15.44C60.6406 11.2 60.6406 8.12 60.6406 4.92V1.68ZM62.2406 7.8V11.44L39.9206 12.32L39.3206 8.28L62.2406 7.8ZM36.3206 14.48H69.6806V18.64H36.3206V14.48ZM39.9206 21.08H66.0806V30.92H45.2406V34.88H39.9606V27.16H60.8006V25.12H39.9206V21.08ZM39.9606 33.12H67.3206V37.16H39.9606V33.12ZM73.0375 19.04H106.598V23.24H73.0375V19.04ZM87.1575 20.6H92.4775V27.6H87.1575V20.6ZM77.2775 25.68H102.718V37.16H77.2775V25.68ZM97.4775 29.84H82.4775V32.96H97.4775V29.84ZM77.1575 1.16H102.518V11.04H82.4775V15.12H77.1975V7.32H97.2775V5.2H77.1575V1.16ZM77.1975 13.16H103.238V17.2H77.1975V13.16ZM126.594 1.04C135.034 1.04 139.994 3.28 139.994 7.36C139.994 11.44 135.034 13.68 126.594 13.68C118.114 13.68 113.194 11.44 113.194 7.36C113.194 3.28 118.114 1.04 126.594 1.04ZM126.594 4.92C121.234 4.92 118.714 5.72 118.714 7.36C118.714 9.08 121.234 9.8 126.594 9.8C131.954 9.8 134.474 9.08 134.474 7.36C134.474 5.72 131.954 4.92 126.594 4.92ZM109.834 15.4H143.314V19.6H109.834V15.4ZM113.674 21.68H139.274V31.2H118.954V34.48H113.714V27.52H134.034V25.64H113.674V21.68ZM113.714 33.32H140.234V37.32H113.714V33.32ZM154.56 19.6H188.08V23.76H154.56V19.6ZM168.64 15.64H173.96V21.12H168.64V15.64ZM158.72 13.32H184.52V17.36H158.72V13.32ZM158.72 1.44H184.24V5.48H164V15.6H158.72V1.44ZM162.52 7.44H183.4V11.32H162.52V7.44ZM171.28 25.4C179.4 25.4 184.12 27.56 184.12 31.48C184.12 35.44 179.4 37.56 171.28 37.56C163.12 37.56 158.4 35.44 158.4 31.48C158.4 27.56 163.12 25.4 171.28 25.4ZM171.28 29.32C166.12 29.32 163.76 29.96 163.76 31.48C163.76 33.04 166.12 33.68 171.28 33.68C176.4 33.68 178.76 33.04 178.76 31.48C178.76 29.96 176.4 29.32 171.28 29.32ZM191.357 6.08H209.077V10.32H191.357V6.08ZM200.277 11.96C204.997 11.96 208.397 15.6 208.397 20.8C208.397 25.96 204.997 29.6 200.277 29.6C195.597 29.6 192.157 25.96 192.157 20.8C192.157 15.6 195.597 11.96 200.277 11.96ZM200.277 16.4C198.277 16.4 196.877 18 196.877 20.8C196.877 23.6 198.277 25.16 200.277 25.16C202.277 25.16 203.717 23.6 203.717 20.8C203.717 18 202.277 16.4 200.277 16.4ZM218.157 0.52H223.237V37.56H218.157V0.52ZM213.717 15.56H219.837V19.84H213.717V15.56ZM210.397 1.2H215.357V36H210.397V1.2ZM197.677 1.52H202.917V8.76H197.677V1.52ZM246.874 12.08H256.634V16.36H246.874V12.08ZM236.794 3.36H241.114V8.72C241.114 18.04 237.954 26.64 230.994 30.12L227.674 25.84C233.994 22.92 236.794 15.76 236.794 8.72V3.36ZM237.914 3.36H242.154V8.72C242.154 15.76 244.834 22.52 250.954 25.24L247.794 29.48C240.834 26.12 237.914 17.96 237.914 8.72V3.36ZM253.994 0.479998H259.274V37.64H253.994V0.479998ZM7.55328 63.72H11.6333V69.96C11.6333 78.36 9.27328 86.52 3.31328 90.12L0.0332813 86.2C5.55328 82.88 7.55328 76.24 7.55328 69.96V63.72ZM8.59328 63.72H12.7133V69.56C12.7133 75.96 14.3933 82 19.5533 84.84L16.4733 89.04C10.4733 85.68 8.59328 78.04 8.59328 69.56V63.72ZM27.4733 60.52H32.5533V97.56H27.4733V60.52ZM23.0333 74.92H29.1533V79.2H23.0333V74.92ZM19.4733 61.08H24.4733V95.88H19.4733V61.08ZM37.5502 89.16H71.0702V93.48H37.5502V89.16ZM51.5902 82.16H56.9102V90.92H51.5902V82.16ZM41.3102 62.92H67.3102V75.24H46.6702V81.48H41.3902V71.08H62.0302V67.12H41.3102V62.92ZM41.3902 79.36H68.1502V83.64H41.3902V79.36ZM74.307 78.52H107.867V82.72H74.307V78.52ZM88.667 81.28H94.067V89.08H88.667V81.28ZM78.227 92.64H104.187V96.92H78.227V92.64ZM78.227 85.84H83.587V93.72H78.227V85.84ZM91.067 61.2C99.027 61.2 104.387 64.2 104.387 68.88C104.387 73.6 99.027 76.56 91.067 76.56C83.067 76.56 77.747 73.6 77.747 68.88C77.747 64.2 83.067 61.2 91.067 61.2ZM91.067 65.4C86.387 65.4 83.467 66.6 83.467 68.88C83.467 71.16 86.387 72.32 91.067 72.32C95.747 72.32 98.667 71.16 98.667 68.88C98.667 66.6 95.747 65.4 91.067 65.4ZM136.601 67.56H140.881V68C140.881 73.48 137.601 77.96 130.481 79.4L128.361 75.28C134.081 74.24 136.601 71.2 136.601 68V67.56ZM137.681 67.56H141.961V68C141.961 71 144.441 73.76 150.041 74.76L147.961 78.84C140.961 77.52 137.681 73.24 137.681 68V67.56ZM129.361 64.2H149.161V68.28H129.361V64.2ZM136.601 60.6H141.961V67.12H136.601V60.6ZM136.561 81.56H141.881V96.44H136.561V81.56ZM152.761 60.52H158.041V97.56H152.761V60.52ZM127.801 85.28L127.161 80.96C133.881 80.96 142.881 80.92 150.641 79.88L151.001 83.72C143.001 85.16 134.401 85.28 127.801 85.28ZM165.678 63.84H183.478V88.76H165.678V63.84ZM178.278 68H170.918V84.56H178.278V68ZM189.238 60.48H194.598V97.64H189.238V60.48ZM204.555 77.04H230.595V81.28H204.555V77.04ZM200.675 89.04H234.195V93.4H200.675V89.04ZM214.715 78.96H220.035V90.44H214.715V78.96ZM204.555 63.04H230.315V67.32H209.875V78.88H204.555V63.04ZM265.903 64.9091H273.801L270.704 83.5455C270.344 85.7614 269.502 87.679 268.176 89.2983C266.859 90.9081 265.183 92.1534 263.147 93.0341C261.111 93.9053 258.848 94.3409 256.358 94.3409C253.848 94.3409 251.727 93.9053 249.994 93.0341C248.261 92.1534 247.002 90.9081 246.216 89.2983C245.439 87.679 245.231 85.7614 245.591 83.5455L248.687 64.9091H256.585L253.602 82.8636C253.46 83.7633 253.531 84.5634 253.815 85.2642C254.099 85.965 254.558 86.5189 255.193 86.9261C255.827 87.3239 256.594 87.5227 257.494 87.5227C258.403 87.5227 259.241 87.3239 260.008 86.9261C260.785 86.5189 261.429 85.965 261.94 85.2642C262.451 84.5634 262.778 83.7633 262.92 82.8636L265.903 64.9091ZM272.725 94L277.554 64.9091H290.111C292.27 64.9091 294.088 65.3352 295.566 66.1875C297.043 67.0398 298.104 68.2377 298.748 69.7812C299.391 71.3248 299.543 73.1288 299.202 75.1932C298.861 77.2955 298.104 79.1089 296.929 80.6335C295.765 82.1487 294.278 83.3182 292.469 84.142C290.67 84.9564 288.653 85.3636 286.418 85.3636H278.918L279.941 79.2273H285.85C286.797 79.2273 287.63 79.0663 288.35 78.7443C289.069 78.4129 289.652 77.9489 290.097 77.3523C290.542 76.7462 290.831 76.0265 290.963 75.1932C291.096 74.3598 291.034 73.6496 290.779 73.0625C290.533 72.4659 290.106 72.0114 289.5 71.6989C288.904 71.3769 288.141 71.2159 287.213 71.2159H284.429L280.623 94H272.725ZM84.2617 125.48H95.2217V129.76H84.2617V125.48ZM84.2617 133.52H95.2217V137.8H84.2617V133.52ZM73.6217 144.12H98.8617V157.56H93.5417V148.32H73.6217V144.12ZM93.5417 120.52H98.8617V142.44H93.5417V120.52ZM78.1017 122.44C83.6217 122.44 87.8617 126.28 87.8617 131.6C87.8617 136.96 83.6217 140.8 78.1017 140.8C72.5417 140.8 68.3017 136.96 68.3017 131.6C68.3017 126.28 72.5417 122.44 78.1017 122.44ZM78.1017 126.96C75.3817 126.96 73.3817 128.68 73.3817 131.6C73.3817 134.56 75.3817 136.28 78.1017 136.28C80.7817 136.28 82.8217 134.56 82.8217 131.6C82.8217 128.68 80.7817 126.96 78.1017 126.96ZM132.299 125.48H138.739V129.84H132.299V125.48ZM132.299 133.28H138.739V137.64H132.299V133.28ZM128.499 120.52H133.819V142.84H128.499V120.52ZM105.979 137H109.099C116.379 137 120.859 136.84 125.979 135.88L126.459 140.12C121.259 141.12 116.579 141.32 109.099 141.32H105.979V137ZM105.939 122.72H122.859V133.84H111.259V139.6H105.979V129.88H117.619V126.92H105.939V122.72ZM121.659 143.48C129.379 143.48 134.179 146.12 134.179 150.56C134.179 155 129.379 157.56 121.659 157.56C113.939 157.56 109.099 155 109.099 150.56C109.099 146.12 113.939 143.48 121.659 143.48ZM121.659 147.56C116.859 147.56 114.339 148.52 114.339 150.56C114.339 152.6 116.859 153.56 121.659 153.56C126.459 153.56 128.979 152.6 128.979 150.56C128.979 148.52 126.459 147.56 121.659 147.56ZM145.375 137.04H171.415V141.28H145.375V137.04ZM141.495 149.04H175.015V153.4H141.495V149.04ZM155.535 138.96H160.855V150.44H155.535V138.96ZM145.375 123.04H171.135V127.32H150.695V138.88H145.375V123.04ZM206.723 124.909H214.621L211.525 143.545C211.165 145.761 210.322 147.679 208.996 149.298C207.68 150.908 206.004 152.153 203.968 153.034C201.932 153.905 199.668 154.341 197.178 154.341C194.668 154.341 192.547 153.905 190.814 153.034C189.081 152.153 187.822 150.908 187.036 149.298C186.259 147.679 186.051 145.761 186.411 143.545L189.507 124.909H197.405L194.422 142.864C194.28 143.763 194.351 144.563 194.635 145.264C194.919 145.965 195.379 146.519 196.013 146.926C196.648 147.324 197.415 147.523 198.314 147.523C199.223 147.523 200.061 147.324 200.828 146.926C201.605 146.519 202.249 145.965 202.76 145.264C203.272 144.563 203.598 143.763 203.74 142.864L206.723 124.909ZM213.545 154L218.375 124.909H230.931C233.091 124.909 234.909 125.335 236.386 126.188C237.863 127.04 238.924 128.238 239.568 129.781C240.212 131.325 240.363 133.129 240.022 135.193C239.681 137.295 238.924 139.109 237.75 140.634C236.585 142.149 235.098 143.318 233.289 144.142C231.49 144.956 229.473 145.364 227.238 145.364H219.738L220.761 139.227H226.67C227.617 139.227 228.45 139.066 229.17 138.744C229.89 138.413 230.472 137.949 230.917 137.352C231.362 136.746 231.651 136.027 231.784 135.193C231.916 134.36 231.855 133.65 231.599 133.062C231.353 132.466 230.927 132.011 230.321 131.699C229.724 131.377 228.962 131.216 228.034 131.216H225.25L221.443 154H213.545Z" fill="#4D43B8"/>
</svg>
