<svg width="56" height="56" viewBox="0 0 56 56" fill="none" xmlns="http://www.w3.org/2000/svg">
<circle cx="27.6411" cy="27.6411" r="27.6411" fill="#BAB4FD"/>
<path d="M17.9005 17.019C17.321 17.0495 16.8329 17.2707 16.4364 17.6824C16.0552 18.0942 15.7807 18.567 15.6129 19.1007C15.4451 19.6192 15.3613 20.153 15.3613 20.702C15.3613 21.251 15.4375 21.7924 15.59 22.3262C15.7578 22.86 16.0399 23.3327 16.4364 23.7445C16.8329 24.141 17.321 24.3545 17.9005 24.385H25.4494C26.4102 24.4765 26.9364 25.0026 27.0279 25.9634C27.0126 26.3904 26.8525 26.7488 26.5475 27.0386C26.2425 27.3131 25.8764 27.4503 25.4494 27.4503H18.1521H17.0998C16.0323 27.3893 15.1554 26.9852 14.4691 26.2379C13.7829 25.4754 13.2872 24.6138 12.9822 23.653C12.6924 22.6922 12.5476 21.7086 12.5476 20.702C12.5476 19.9548 12.6314 19.2151 12.7992 18.4831C12.967 17.7511 13.2262 17.0572 13.577 16.4014C13.943 15.7304 14.4234 15.1585 15.0181 14.6857C15.6282 14.213 16.322 13.969 17.0998 13.9537H17.5345H25.4494C26.4102 14.0452 26.9364 14.5713 27.0279 15.5321C27.0279 15.9591 26.8677 16.3175 26.5475 16.6073C26.2425 16.8818 25.8764 17.019 25.4494 17.019H17.9005ZM30.6651 13.5877C31.0921 13.5877 31.4581 13.7326 31.7631 14.0223C32.0681 14.2968 32.2283 14.6476 32.2435 15.0746V20.5876C32.2283 21.2129 32.2664 21.7924 32.3579 22.3262C32.4646 22.8447 32.7086 23.3098 33.0899 23.7216C33.4712 24.1334 33.9516 24.3545 34.5311 24.385H41.8513C42.2783 24.4003 42.6291 24.5604 42.9036 24.8654C43.1933 25.1704 43.3382 25.5364 43.3382 25.9634C43.3229 26.3752 43.1704 26.7259 42.8807 27.0157C42.6062 27.2902 42.263 27.4351 41.8513 27.4503H33.7533C32.6858 27.3893 31.8012 27.031 31.0997 26.3752C30.4135 25.7042 29.9178 24.8883 29.6128 23.9275C29.323 22.9667 29.1705 21.9449 29.1553 20.8622V15.0746C29.1705 14.6629 29.323 14.3197 29.6128 14.0452C29.9026 13.7554 30.2533 13.6029 30.6651 13.5877Z" fill="#7D71F7"/>
<path d="M6.92149 33.0058C7.09534 32.5666 7.38815 32.1731 7.79991 31.8254C8.22083 31.4685 8.75154 31.2855 9.39206 31.2764H14.5528C14.809 31.2764 15.024 31.3679 15.1979 31.5509C15.3809 31.7247 15.4724 31.9398 15.4724 32.196C15.4724 32.4522 15.3809 32.6718 15.1979 32.8548C15.024 33.0287 14.809 33.1156 14.5528 33.1156H9.33716C9.1633 33.1156 9.01232 33.1888 8.88422 33.3352C8.75612 33.4724 8.65546 33.6371 8.58226 33.8293C8.51821 34.0215 8.48618 34.2045 8.48618 34.3783V36.7803C8.43128 37.3293 8.12932 37.6267 7.58031 37.6724C7.3241 37.6724 7.09992 37.5901 6.90776 37.4254C6.72476 37.2515 6.63325 37.0365 6.63325 36.7803V34.392H6.64698C6.64698 33.9162 6.73848 33.4541 6.92149 33.0058ZM19.6724 37.5077C18.8672 37.4803 18.2587 37.2927 17.8469 36.945C17.4351 36.5881 17.1378 36.1901 16.9548 35.7509C16.7717 35.3025 16.6802 34.8496 16.6802 34.392C16.6802 33.9162 16.7672 33.4587 16.941 33.0195C17.124 32.5711 17.4214 32.1731 17.8332 31.8254C18.2541 31.4685 18.7848 31.2855 19.4253 31.2764H23.8724C24.5129 31.2855 25.039 31.4685 25.4508 31.8254C25.8717 32.1731 26.1691 32.5711 26.3429 33.0195C26.5259 33.4587 26.6174 33.9162 26.6174 34.392C26.6174 34.8496 26.5259 35.3025 26.3429 35.7509C26.1599 36.1901 25.8625 36.5881 25.4508 36.945C25.039 37.2927 24.4305 37.4803 23.6253 37.5077H19.6724ZM19.3704 33.1156C19.1966 33.1156 19.0456 33.1888 18.9175 33.3352C18.7894 33.4724 18.6933 33.6371 18.6292 33.8293C18.5743 34.0123 18.5469 34.1953 18.5469 34.3783C18.5469 34.5705 18.5743 34.7626 18.6292 34.9548C18.6933 35.1378 18.7894 35.3025 18.9175 35.4489C19.0456 35.5862 19.1966 35.6594 19.3704 35.6685H23.9273C24.1011 35.6594 24.2521 35.5862 24.3802 35.4489C24.5083 35.3025 24.5998 35.1378 24.6547 34.9548C24.7187 34.7626 24.7508 34.5705 24.7508 34.3783C24.7508 34.1953 24.7187 34.0123 24.6547 33.8293C24.5998 33.6371 24.5083 33.4724 24.3802 33.3352C24.2521 33.1888 24.1011 33.1156 23.9273 33.1156H19.3704ZM31.037 37.5077C30.2318 37.4803 29.6233 37.2927 29.2115 36.945C28.7998 36.5881 28.5024 36.1901 28.3194 35.7509C28.1364 35.3025 28.0449 34.8496 28.0449 34.392C28.0449 33.9162 28.1318 33.4587 28.3057 33.0195C28.4887 32.5711 28.786 32.1731 29.1978 31.8254C29.6187 31.4685 30.1494 31.2855 30.7899 31.2764H35.237C35.8775 31.2855 36.4036 31.4685 36.8154 31.8254C37.2363 32.1731 37.5337 32.5711 37.7075 33.0195C37.8906 33.4587 37.9821 33.9162 37.9821 34.392C37.9821 34.8496 37.8906 35.3025 37.7075 35.7509C37.5245 36.1901 37.2272 36.5881 36.8154 36.945C36.4036 37.2927 35.7951 37.4803 34.9899 37.5077H31.037ZM30.735 33.1156C30.5612 33.1156 30.4102 33.1888 30.2821 33.3352C30.154 33.4724 30.0579 33.6371 29.9939 33.8293C29.939 34.0123 29.9115 34.1953 29.9115 34.3783C29.9115 34.5705 29.939 34.7626 29.9939 34.9548C30.0579 35.1378 30.154 35.3025 30.2821 35.4489C30.4102 35.5862 30.5612 35.6594 30.735 35.6685H35.2919C35.4657 35.6594 35.6167 35.5862 35.7448 35.4489C35.8729 35.3025 35.9644 35.1378 36.0193 34.9548C36.0834 34.7626 36.1154 34.5705 36.1154 34.3783C36.1154 34.1953 36.0834 34.0123 36.0193 33.8293C35.9644 33.6371 35.8729 33.4724 35.7448 33.3352C35.6167 33.1888 35.4657 33.1156 35.2919 33.1156H30.735ZM42.4703 31.0705C42.7905 31.0705 43.1016 31.1254 43.4036 31.2352C43.7147 31.345 44.0121 31.5051 44.2957 31.7156C44.3415 31.7613 44.3918 31.8071 44.4467 31.8528C44.4925 31.8071 44.5428 31.7613 44.5977 31.7156C44.8814 31.5051 45.1742 31.345 45.4761 31.2352C45.7872 31.1254 46.0983 31.0705 46.4094 31.0705C46.7297 31.0705 47.0408 31.1254 47.3428 31.2352C47.6539 31.345 47.9467 31.5097 48.2212 31.7293C48.5049 31.9398 48.7519 32.2234 48.9624 32.5803C49.182 32.9371 49.2918 33.3626 49.2918 33.8568V36.7803C49.2369 37.3293 48.9349 37.6267 48.3859 37.6724C48.1297 37.6724 47.9055 37.5901 47.7134 37.4254C47.5304 37.2515 47.4389 37.0365 47.4389 36.7803V33.9666C47.4389 33.7469 47.3977 33.5639 47.3153 33.4175C47.233 33.262 47.1415 33.143 47.0408 33.0607C46.9402 32.9692 46.8349 32.9051 46.7251 32.8685C46.6153 32.8228 46.5055 32.7999 46.3957 32.7999C46.2859 32.7999 46.1761 32.8228 46.0663 32.8685C45.9657 32.9051 45.865 32.9692 45.7644 33.0607C45.6637 33.143 45.5722 33.262 45.4898 33.4175C45.4075 33.5639 45.3617 33.7469 45.3526 33.9666V36.7803C45.2977 37.3293 44.9957 37.6267 44.4467 37.6724C44.1905 37.6724 43.9663 37.5901 43.7742 37.4254C43.5912 37.2515 43.4997 37.0365 43.4997 36.7803V33.9666C43.4997 33.7469 43.4585 33.5639 43.3761 33.4175C43.2938 33.262 43.2023 33.143 43.1016 33.0607C43.001 32.9692 42.8957 32.9051 42.7859 32.8685C42.6761 32.8228 42.5663 32.7999 42.4565 32.7999C42.3467 32.7999 42.2369 32.8228 42.1271 32.8685C42.0265 32.9051 41.9258 32.9692 41.8252 33.0607C41.7245 33.143 41.633 33.262 41.5507 33.4175C41.4683 33.5639 41.4226 33.7469 41.4134 33.9666V36.7803C41.3677 37.3293 41.0703 37.6267 40.5213 37.6724C40.265 37.6724 40.0409 37.5901 39.8487 37.4254C39.6657 37.2515 39.5742 37.0365 39.5742 36.7803V33.8568C39.5925 33.3626 39.7069 32.9371 39.9173 32.5803C40.1278 32.2234 40.3749 31.9398 40.6585 31.7293C40.9422 31.5097 41.235 31.345 41.5369 31.2352C41.848 31.1254 42.1592 31.0705 42.4703 31.0705Z" fill="#F6F6FF"/>
</svg>
