<svg width="131" height="99" viewBox="0 0 131 99" fill="none" xmlns="http://www.w3.org/2000/svg">
<path d="M13.2116 21.2852L37.7958 21.2852" stroke="#6C5FF7" stroke-width="10.2041" stroke-linecap="round"/>
<path d="M15.9494 67.1914L40.6404 67.1914" stroke="#6C5FF7" stroke-width="10.2041" stroke-linecap="round"/>
<path d="M97.9475 57.9375V60.6714" stroke="#6C5FF7" stroke-width="10.2041" stroke-linecap="round"/>
<path d="M5 36.6445L64.2652 36.6445" stroke="#6C5FF7" stroke-width="8.20184" stroke-linecap="round"/>
<path d="M70.6104 55.2188L126.733 55.2188" stroke="#6C5FF7" stroke-width="8.20184" stroke-linecap="round"/>
<path d="M13.2116 51.9297H45.8649C48.586 51.9297 54.0282 53.679 54.0282 60.6761C54.0282 67.6732 54.0282 64.3204 54.0282 67.2359" stroke="#6C5FF7" stroke-width="10.2041" stroke-linecap="round"/>
<path d="M81.5713 71.6211H114.225C116.946 71.6211 122.388 73.3704 122.388 80.3675C122.388 87.3646 122.388 81.7651 122.388 84.6806" stroke="#6C5FF7" stroke-width="8.20184" stroke-linecap="round"/>
<path d="M56.5648 82.5234H20.3401C17.9591 82.5234 13.1972 80.7742 13.1972 73.777C13.1972 66.7799 13.1972 70.1327 13.1972 67.2172" stroke="#6C5FF7" stroke-width="10.2041" stroke-linecap="round"/>
<path d="M122.559 94.6797H88.6841C86.3031 94.6797 81.5412 92.9304 81.5412 85.9333C81.5412 78.9362 81.5412 83.1439 81.5412 80.2284" stroke="#6C5FF7" stroke-width="8.20184" stroke-linecap="round"/>
<path d="M76.0851 27.8984L103.425 27.8984" stroke="#6C5FF7" stroke-width="10.2041" stroke-linecap="round"/>
<path d="M76.0966 11.4922H108.75C111.471 11.4922 116.913 13.2415 116.913 20.2386C116.913 27.2357 116.913 23.8829 116.913 26.7984" stroke="#6C5FF7" stroke-width="10.2041" stroke-linecap="round"/>
<path d="M119.439 42.0664H83.2144C80.8335 42.0664 76.0715 40.3171 76.0715 33.32C76.0715 26.3229 76.0715 31.1941 76.0715 28.2787" stroke="#6C5FF7" stroke-width="10.2041" stroke-linecap="round"/>
<path d="M13.2116 6H43.824C46.3751 6 51.4771 7.53062 51.4771 13.6531C51.4771 19.7756 51.4771 22.5866 51.4771 25.1376" stroke="#6C5FF7" stroke-width="10.2041" stroke-linecap="round"/>
</svg>
