<svg width="291" height="291" viewBox="0 0 291 291" fill="none" xmlns="http://www.w3.org/2000/svg">
<g filter="url(#filter0_f_1182_13633)">
<circle cx="145.348" cy="145.348" r="135.348" fill="white"/>
</g>
<path d="M95.4083 92.698C92.5706 92.8474 90.181 93.9302 88.2395 95.9464C86.3726 97.9626 85.0284 100.278 84.207 102.891C83.3856 105.43 82.9749 108.044 82.9749 110.732C82.9749 113.42 83.3482 116.071 84.095 118.685C84.9164 121.299 86.2979 123.614 88.2395 125.63C90.181 127.571 92.5706 128.617 95.4083 128.766H132.373C137.077 129.214 139.653 131.791 140.102 136.495C140.027 138.586 139.243 140.341 137.749 141.76C136.256 143.104 134.464 143.776 132.373 143.776H96.6405H91.4879C86.2606 143.477 81.9667 141.498 78.6063 137.839C75.246 134.106 72.819 129.886 71.3255 125.182C69.9067 120.477 69.1972 115.661 69.1972 110.732C69.1972 107.073 69.608 103.451 70.4294 99.8668C71.2508 96.2824 72.5203 92.8847 74.2378 89.6737C76.03 86.3879 78.3823 83.5876 81.2947 81.2727C84.2817 78.9577 87.6794 77.7629 91.4879 77.6883H93.6161H132.373C137.077 78.1363 139.653 80.7126 140.102 85.4172C140.102 87.5081 139.317 89.2629 137.749 90.6818C136.256 92.0259 134.464 92.698 132.373 92.698H95.4083ZM157.912 75.896C160.003 75.896 161.795 76.6055 163.288 78.0243C164.782 79.3684 165.566 81.086 165.641 83.1769V110.172C165.566 113.234 165.753 116.071 166.201 118.685C166.723 121.224 167.918 123.502 169.785 125.518C171.652 127.534 174.004 128.617 176.842 128.766H212.686C214.777 128.841 216.494 129.625 217.839 131.118C219.257 132.612 219.967 134.404 219.967 136.495C219.892 138.511 219.145 140.229 217.727 141.648C216.382 142.992 214.702 143.701 212.686 143.776H173.033C167.806 143.477 163.475 141.722 160.04 138.511C156.679 135.226 154.253 131.231 152.759 126.526C151.34 121.821 150.593 116.818 150.519 111.516V83.1769C150.593 81.1607 151.34 79.4805 152.759 78.1363C154.178 76.7175 155.895 75.9707 157.912 75.896Z" fill="#7D71F7"/>
<path d="M41.6455 170.15C42.4968 167.999 43.9305 166.072 45.9468 164.37C48.0078 162.622 50.6065 161.726 53.7429 161.681H79.013C80.2676 161.681 81.3205 162.129 82.1718 163.025C83.0679 163.877 83.516 164.93 83.516 166.184C83.516 167.439 83.0679 168.514 82.1718 169.41C81.3205 170.262 80.2676 170.687 79.013 170.687H53.474C52.6227 170.687 51.8835 171.046 51.2562 171.763C50.6289 172.435 50.1361 173.241 49.7776 174.182C49.464 175.123 49.3072 176.019 49.3072 176.87V188.632C49.0383 191.32 47.5598 192.776 44.8714 193C43.6169 193 42.5192 192.597 41.5783 191.79C40.6821 190.939 40.2341 189.886 40.2341 188.632V176.938H40.3013C40.3013 174.608 40.7494 172.345 41.6455 170.15ZM104.082 192.194C100.139 192.059 97.1592 191.141 95.1429 189.438C93.1267 187.691 91.6705 185.742 90.7744 183.591C89.8783 181.396 89.4302 179.178 89.4302 176.938C89.4302 174.608 89.8559 172.367 90.7072 170.217C91.6033 168.021 93.0595 166.072 95.0757 164.37C97.1367 162.622 99.7355 161.726 102.872 161.681H124.647C127.784 161.726 130.36 162.622 132.376 164.37C134.437 166.072 135.893 168.021 136.745 170.217C137.641 172.367 138.089 174.608 138.089 176.938C138.089 179.178 137.641 181.396 136.745 183.591C135.848 185.742 134.392 187.691 132.376 189.438C130.36 191.141 127.38 192.059 123.437 192.194H104.082ZM102.603 170.687C101.752 170.687 101.012 171.046 100.385 171.763C99.7579 172.435 99.2874 173.241 98.9738 174.182C98.7049 175.078 98.5705 175.974 98.5705 176.87C98.5705 177.811 98.7049 178.752 98.9738 179.693C99.2874 180.589 99.7579 181.396 100.385 182.113C101.012 182.785 101.752 183.143 102.603 183.188H124.916C125.767 183.143 126.507 182.785 127.134 182.113C127.761 181.396 128.209 180.589 128.478 179.693C128.792 178.752 128.948 177.811 128.948 176.87C128.948 175.974 128.792 175.078 128.478 174.182C128.209 173.241 127.761 172.435 127.134 171.763C126.507 171.046 125.767 170.687 124.916 170.687H102.603ZM159.73 192.194C155.787 192.059 152.807 191.141 150.791 189.438C148.775 187.691 147.319 185.742 146.423 183.591C145.526 181.396 145.078 179.178 145.078 176.938C145.078 174.608 145.504 172.367 146.355 170.217C147.251 168.021 148.708 166.072 150.724 164.37C152.785 162.622 155.384 161.726 158.52 161.681H180.295C183.432 161.726 186.008 162.622 188.024 164.37C190.085 166.072 191.541 168.021 192.393 170.217C193.289 172.367 193.737 174.608 193.737 176.938C193.737 179.178 193.289 181.396 192.393 183.591C191.497 185.742 190.04 187.691 188.024 189.438C186.008 191.141 183.028 192.059 179.086 192.194H159.73ZM158.251 170.687C157.4 170.687 156.661 171.046 156.033 171.763C155.406 172.435 154.936 173.241 154.622 174.182C154.353 175.078 154.219 175.974 154.219 176.87C154.219 177.811 154.353 178.752 154.622 179.693C154.936 180.589 155.406 181.396 156.033 182.113C156.661 182.785 157.4 183.143 158.251 183.188H180.564C181.415 183.143 182.155 182.785 182.782 182.113C183.409 181.396 183.857 180.589 184.126 179.693C184.44 178.752 184.597 177.811 184.597 176.87C184.597 175.974 184.44 175.078 184.126 174.182C183.857 173.241 183.409 172.435 182.782 171.763C182.155 171.046 181.415 170.687 180.564 170.687H158.251ZM215.714 160.673C217.282 160.673 218.805 160.942 220.284 161.48C221.807 162.017 223.264 162.801 224.652 163.832C224.876 164.056 225.123 164.28 225.392 164.504C225.616 164.28 225.862 164.056 226.131 163.832C227.52 162.801 228.954 162.017 230.432 161.48C231.956 160.942 233.479 160.673 235.002 160.673C236.571 160.673 238.094 160.942 239.573 161.48C241.096 162.017 242.53 162.824 243.874 163.899C245.263 164.93 246.473 166.319 247.503 168.066C248.578 169.813 249.116 171.897 249.116 174.316V188.632C248.847 191.32 247.369 192.776 244.68 193C243.426 193 242.328 192.597 241.387 191.79C240.491 190.939 240.043 189.886 240.043 188.632V174.854C240.043 173.779 239.841 172.883 239.438 172.166C239.035 171.404 238.587 170.822 238.094 170.418C237.601 169.97 237.086 169.657 236.548 169.477C236.011 169.253 235.473 169.141 234.935 169.141C234.398 169.141 233.86 169.253 233.322 169.477C232.829 169.657 232.337 169.97 231.844 170.418C231.351 170.822 230.903 171.404 230.5 172.166C230.096 172.883 229.872 173.779 229.827 174.854V188.632C229.559 191.32 228.08 192.776 225.392 193C224.137 193 223.039 192.597 222.099 191.79C221.202 190.939 220.754 189.886 220.754 188.632V174.854C220.754 173.779 220.553 172.883 220.15 172.166C219.746 171.404 219.298 170.822 218.805 170.418C218.313 169.97 217.797 169.657 217.26 169.477C216.722 169.253 216.184 169.141 215.647 169.141C215.109 169.141 214.571 169.253 214.034 169.477C213.541 169.657 213.048 169.97 212.555 170.418C212.062 170.822 211.614 171.404 211.211 172.166C210.808 172.883 210.584 173.779 210.539 174.854V188.632C210.315 191.32 208.859 192.776 206.17 193C204.916 193 203.818 192.597 202.877 191.79C201.981 190.939 201.533 189.886 201.533 188.632V174.316C201.623 171.897 202.183 169.813 203.213 168.066C204.244 166.319 205.453 164.93 206.842 163.899C208.231 162.824 209.665 162.017 211.144 161.48C212.667 160.942 214.19 160.673 215.714 160.673Z" fill="#9CAEFF"/>
<defs>
<filter id="filter0_f_1182_13633" x="0" y="0" width="290.695" height="290.695" filterUnits="userSpaceOnUse" color-interpolation-filters="sRGB">
<feFlood flood-opacity="0" result="BackgroundImageFix"/>
<feBlend mode="normal" in="SourceGraphic" in2="BackgroundImageFix" result="shape"/>
<feGaussianBlur stdDeviation="5" result="effect1_foregroundBlur_1182_13633"/>
</filter>
</defs>
</svg>
