<svg width="1657" height="774" viewBox="0 0 1657 774" fill="none" xmlns="http://www.w3.org/2000/svg">
<circle cx="1270" cy="387" r="251.5" fill="white" stroke="black"/>
<path fill-rule="evenodd" clip-rule="evenodd" d="M386.931 0C173.235 0 0 173.236 0 386.931C0 600.626 173.235 773.862 386.931 773.862H1269.52C1483.21 773.862 1656.45 600.626 1656.45 386.931C1656.45 173.236 1483.21 0 1269.52 0H386.931ZM1269.52 633.16C1405.51 633.16 1515.75 522.92 1515.75 386.931C1515.75 250.942 1405.51 140.702 1269.52 140.702C1133.53 140.702 1023.29 250.942 1023.29 386.931C1023.29 522.92 1133.53 633.16 1269.52 633.16Z" fill="#EFEFFF"/>
<path d="M1128.87 467.084C1130.06 464.086 1132.05 461.4 1134.87 459.027C1137.74 456.591 1141.36 455.342 1145.73 455.28H1180.96C1182.71 455.28 1184.17 455.904 1185.36 457.153C1186.61 458.34 1187.24 459.808 1187.24 461.557C1187.24 463.305 1186.61 464.804 1185.36 466.053C1184.17 467.24 1182.71 467.833 1180.96 467.833H1145.36C1144.17 467.833 1143.14 468.333 1142.27 469.332C1141.39 470.269 1140.71 471.393 1140.21 472.705C1139.77 474.017 1139.55 475.266 1139.55 476.452V492.847C1139.17 496.595 1137.11 498.625 1133.37 498.937C1131.62 498.937 1130.09 498.375 1128.78 497.251C1127.53 496.064 1126.9 494.596 1126.9 492.847V476.546H1127C1127 473.298 1127.62 470.144 1128.87 467.084ZM1215.9 497.813C1210.41 497.625 1206.25 496.345 1203.44 493.972C1200.63 491.536 1198.6 488.819 1197.35 485.821C1196.1 482.761 1195.48 479.669 1195.48 476.546C1195.48 473.298 1196.07 470.176 1197.26 467.178C1198.51 464.117 1200.54 461.4 1203.35 459.027C1206.22 456.591 1209.84 455.342 1214.22 455.28H1244.57C1248.94 455.342 1252.53 456.591 1255.34 459.027C1258.22 461.4 1260.25 464.117 1261.43 467.178C1262.68 470.176 1263.31 473.298 1263.31 476.546C1263.31 479.669 1262.68 482.761 1261.43 485.821C1260.18 488.819 1258.15 491.536 1255.34 493.972C1252.53 496.345 1248.38 497.625 1242.88 497.813H1215.9ZM1213.84 467.833C1212.66 467.833 1211.62 468.333 1210.75 469.332C1209.88 470.269 1209.22 471.393 1208.78 472.705C1208.41 473.954 1208.22 475.203 1208.22 476.452C1208.22 477.764 1208.41 479.076 1208.78 480.387C1209.22 481.636 1209.88 482.761 1210.75 483.76C1211.62 484.697 1212.66 485.196 1213.84 485.259H1244.95C1246.13 485.196 1247.16 484.697 1248.04 483.76C1248.91 482.761 1249.54 481.636 1249.91 480.387C1250.35 479.076 1250.57 477.764 1250.57 476.452C1250.57 475.203 1250.35 473.954 1249.91 472.705C1249.54 471.393 1248.91 470.269 1248.04 469.332C1247.16 468.333 1246.13 467.833 1244.95 467.833H1213.84ZM1293.47 497.813C1287.98 497.625 1283.82 496.345 1281.01 493.972C1278.2 491.536 1276.17 488.819 1274.92 485.821C1273.68 482.761 1273.05 479.669 1273.05 476.546C1273.05 473.298 1273.64 470.176 1274.83 467.178C1276.08 464.117 1278.11 461.4 1280.92 459.027C1283.79 456.591 1287.42 455.342 1291.79 455.28H1322.14C1326.51 455.342 1330.1 456.591 1332.92 459.027C1335.79 461.4 1337.82 464.117 1339 467.178C1340.25 470.176 1340.88 473.298 1340.88 476.546C1340.88 479.669 1340.25 482.761 1339 485.821C1337.76 488.819 1335.73 491.536 1332.92 493.972C1330.1 496.345 1325.95 497.625 1320.46 497.813H1293.47ZM1291.41 467.833C1290.23 467.833 1289.2 468.333 1288.32 469.332C1287.45 470.269 1286.79 471.393 1286.35 472.705C1285.98 473.954 1285.79 475.203 1285.79 476.452C1285.79 477.764 1285.98 479.076 1286.35 480.387C1286.79 481.636 1287.45 482.761 1288.32 483.76C1289.2 484.697 1290.23 485.196 1291.41 485.259H1322.52C1323.7 485.196 1324.73 484.697 1325.61 483.76C1326.48 482.761 1327.11 481.636 1327.48 480.387C1327.92 479.076 1328.14 477.764 1328.14 476.452C1328.14 475.203 1327.92 473.954 1327.48 472.705C1327.11 471.393 1326.48 470.269 1325.61 469.332C1324.73 468.333 1323.7 467.833 1322.52 467.833H1291.41ZM1371.51 453.874C1373.7 453.874 1375.82 454.249 1377.88 454.999C1380.01 455.748 1382.04 456.841 1383.97 458.278C1384.29 458.59 1384.63 458.902 1385 459.214C1385.32 458.902 1385.66 458.59 1386.03 458.278C1387.97 456.841 1389.97 455.748 1392.03 454.999C1394.15 454.249 1396.28 453.874 1398.4 453.874C1400.59 453.874 1402.71 454.249 1404.77 454.999C1406.9 455.748 1408.89 456.872 1410.77 458.371C1412.7 459.808 1414.39 461.744 1415.83 464.18C1417.33 466.616 1418.07 469.52 1418.07 472.892V492.847C1417.7 496.595 1415.64 498.625 1411.89 498.937C1410.14 498.937 1408.61 498.375 1407.3 497.251C1406.05 496.064 1405.43 494.596 1405.43 492.847V473.642C1405.43 472.143 1405.15 470.894 1404.58 469.895C1404.02 468.833 1403.4 468.021 1402.71 467.459C1402.02 466.834 1401.31 466.397 1400.56 466.147C1399.81 465.835 1399.06 465.679 1398.31 465.679C1397.56 465.679 1396.81 465.835 1396.06 466.147C1395.37 466.397 1394.68 466.834 1394 467.459C1393.31 468.021 1392.69 468.833 1392.12 469.895C1391.56 470.894 1391.25 472.143 1391.19 473.642V492.847C1390.81 496.595 1388.75 498.625 1385 498.937C1383.26 498.937 1381.73 498.375 1380.41 497.251C1379.16 496.064 1378.54 494.596 1378.54 492.847V473.642C1378.54 472.143 1378.26 470.894 1377.7 469.895C1377.13 468.833 1376.51 468.021 1375.82 467.459C1375.14 466.834 1374.42 466.397 1373.67 466.147C1372.92 465.835 1372.17 465.679 1371.42 465.679C1370.67 465.679 1369.92 465.835 1369.17 466.147C1368.48 466.397 1367.8 466.834 1367.11 467.459C1366.42 468.021 1365.8 468.833 1365.24 469.895C1364.67 470.894 1364.36 472.143 1364.3 473.642V492.847C1363.99 496.595 1361.96 498.625 1358.21 498.937C1356.46 498.937 1354.93 498.375 1353.62 497.251C1352.37 496.064 1351.75 494.596 1351.75 492.847V472.892C1351.87 469.52 1352.65 466.616 1354.09 464.18C1355.52 461.744 1357.21 459.808 1359.15 458.371C1361.08 456.872 1363.08 455.748 1365.14 454.999C1367.27 454.249 1369.39 453.874 1371.51 453.874Z" fill="#988FFE"/>
<path d="M287.032 230.855L418.854 230.855" stroke="#6C5FF7" stroke-width="54.7156" stroke-linecap="round"/>
<path d="M301.697 477.012L434.092 477.012" stroke="#6C5FF7" stroke-width="54.7156" stroke-linecap="round"/>
<path d="M741.379 427.344V442.003" stroke="#6C5FF7" stroke-width="54.7156" stroke-linecap="round"/>
<path d="M243 313.148L560.786 313.148" stroke="#6C5FF7" stroke-width="43.9791" stroke-linecap="round"/>
<path d="M594.818 412.781L895.753 412.781" stroke="#6C5FF7" stroke-width="43.9791" stroke-linecap="round"/>
<path d="M287.032 395.141H462.122C476.712 395.141 505.894 404.52 505.894 442.04C505.894 479.559 505.894 461.581 505.894 477.214" stroke="#6C5FF7" stroke-width="54.7156" stroke-linecap="round"/>
<path d="M653.58 500.719H828.67C843.261 500.719 872.442 510.099 872.442 547.618C872.442 585.137 872.442 555.112 872.442 570.745" stroke="#6C5FF7" stroke-width="43.9791" stroke-linecap="round"/>
<path d="M519.495 559.18H325.255C312.488 559.18 286.954 549.8 286.954 512.281C286.954 474.761 286.954 492.739 286.954 477.106" stroke="#6C5FF7" stroke-width="54.7156" stroke-linecap="round"/>
<path d="M873.371 624.383H691.729C678.962 624.383 653.428 615.003 653.428 577.484C653.428 539.964 653.428 562.527 653.428 546.894" stroke="#6C5FF7" stroke-width="43.9791" stroke-linecap="round"/>
<path d="M624.151 266.258L770.748 266.258" stroke="#6C5FF7" stroke-width="54.7156" stroke-linecap="round"/>
<path d="M624.216 178.316H799.306C813.897 178.316 843.079 187.696 843.079 225.215C843.079 262.735 843.079 244.757 843.079 260.39" stroke="#6C5FF7" stroke-width="54.7156" stroke-linecap="round"/>
<path d="M856.617 342.305H662.377C649.61 342.305 624.076 332.925 624.076 295.406C624.076 257.886 624.076 284.006 624.076 268.373" stroke="#6C5FF7" stroke-width="54.7156" stroke-linecap="round"/>
<path d="M287.032 148.863H451.178C464.857 148.863 492.215 157.071 492.215 189.9C492.215 222.729 492.215 237.802 492.215 251.481" stroke="#6C5FF7" stroke-width="54.7156" stroke-linecap="round"/>
<path d="M1165.7 310.58C1159.37 310.913 1154.04 313.328 1149.71 317.824C1145.55 322.321 1142.55 327.484 1140.72 333.314C1138.88 338.976 1137.97 344.806 1137.97 350.802C1137.97 356.797 1138.8 362.71 1140.47 368.539C1142.3 374.369 1145.38 379.532 1149.71 384.028C1154.04 388.359 1159.37 390.691 1165.7 391.024H1248.14C1258.63 392.023 1264.38 397.769 1265.38 408.262C1265.21 412.925 1263.46 416.839 1260.13 420.003C1256.8 423.001 1252.81 424.5 1248.14 424.5H1168.45H1156.96C1145.3 423.834 1135.72 419.421 1128.23 411.26C1120.73 402.932 1115.32 393.522 1111.99 383.029C1108.82 372.536 1107.24 361.794 1107.24 350.802C1107.24 342.641 1108.16 334.563 1109.99 326.568C1111.82 318.574 1114.65 310.996 1118.48 303.834C1122.48 296.506 1127.73 290.26 1134.22 285.097C1140.88 279.934 1148.46 277.269 1156.96 277.103H1161.7H1248.14C1258.63 278.102 1264.38 283.848 1265.38 294.341C1265.38 299.004 1263.63 302.918 1260.13 306.083C1256.8 309.081 1252.81 310.58 1248.14 310.58H1165.7ZM1305.1 273.106C1309.77 273.106 1313.76 274.688 1317.09 277.852C1320.43 280.85 1322.17 284.681 1322.34 289.344V349.552C1322.17 356.381 1322.59 362.71 1323.59 368.539C1324.76 374.202 1327.42 379.282 1331.58 383.779C1335.75 388.276 1340.99 390.691 1347.32 391.024H1427.27C1431.93 391.19 1435.76 392.939 1438.76 396.27C1441.92 399.601 1443.51 403.598 1443.51 408.262C1443.34 412.759 1441.67 416.589 1438.51 419.754C1435.51 422.752 1431.76 424.334 1427.27 424.5H1338.83C1327.17 423.834 1317.51 419.92 1309.85 412.759C1302.35 405.43 1296.94 396.52 1293.61 386.027C1290.45 375.534 1288.78 364.375 1288.61 352.55V289.344C1288.78 284.847 1290.45 281.1 1293.61 278.102C1296.78 274.938 1300.61 273.272 1305.1 273.106Z" fill="#7D71F7"/>
</svg>
