<svg width="271" height="271" viewBox="0 0 271 271" fill="none" xmlns="http://www.w3.org/2000/svg">
<circle cx="135.348" cy="135.348" r="135.348" fill="white"/>
<path d="M87.6521 84.4011C84.8144 84.5505 82.4248 85.6333 80.4832 87.6495C78.6164 89.6657 77.2722 91.9807 76.4508 94.5943C75.6293 97.1333 75.2186 99.7469 75.2186 102.435C75.2186 105.124 75.592 107.775 76.3388 110.388C77.1602 113.002 78.5417 115.317 80.4832 117.333C82.4248 119.275 84.8144 120.32 87.6521 120.469H124.616C129.321 120.917 131.897 123.494 132.345 128.198C132.271 130.289 131.487 132.044 129.993 133.463C128.5 134.807 126.707 135.479 124.616 135.479H88.8842H83.7316C78.5043 135.18 74.2105 133.201 70.8501 129.542C67.4897 125.809 65.0628 121.589 63.5693 116.885C62.1504 112.18 61.441 107.364 61.441 102.435C61.441 98.7761 61.8517 95.1544 62.6732 91.57C63.4946 87.9856 64.7641 84.5878 66.4816 81.3768C68.2738 78.0911 70.6261 75.2907 73.5384 72.9758C76.5254 70.6609 79.9232 69.4661 83.7316 69.3914H85.8599H124.616C129.321 69.8394 131.897 72.4157 132.345 77.1203C132.345 79.2112 131.561 80.9661 129.993 82.3849C128.5 83.7291 126.707 84.4011 124.616 84.4011H87.6521ZM150.155 67.5992C152.246 67.5992 154.039 68.3086 155.532 69.7274C157.026 71.0716 157.81 72.7891 157.884 74.88V101.875C157.81 104.937 157.996 107.775 158.444 110.388C158.967 112.927 160.162 115.205 162.029 117.221C163.896 119.237 166.248 120.32 169.086 120.469H204.93C207.021 120.544 208.738 121.328 210.082 122.822C211.501 124.315 212.211 126.107 212.211 128.198C212.136 130.214 211.389 131.932 209.97 133.351C208.626 134.695 206.946 135.404 204.93 135.479H165.277C160.05 135.18 155.719 133.426 152.284 130.214C148.923 126.929 146.496 122.934 145.003 118.229C143.584 113.525 142.837 108.521 142.763 103.219V74.88C142.837 72.8638 143.584 71.1836 145.003 69.8394C146.422 68.4206 148.139 67.6738 150.155 67.5992Z" fill="#9CAEFF"/>
<path d="M33.8909 161.849C34.7422 159.698 36.176 157.771 38.1922 156.069C40.2533 154.321 42.852 153.425 45.9884 153.381H71.2585C72.5131 153.381 73.566 153.829 74.4173 154.725C75.3134 155.576 75.7614 156.629 75.7614 157.883C75.7614 159.138 75.3134 160.213 74.4173 161.109C73.566 161.961 72.5131 162.386 71.2585 162.386H45.7195C44.8682 162.386 44.1289 162.745 43.5017 163.462C42.8744 164.134 42.3815 164.94 42.0231 165.881C41.7095 166.822 41.5526 167.718 41.5526 168.57V180.331C41.2838 183.019 39.8052 184.475 37.1169 184.699C35.8624 184.699 34.7646 184.296 33.8237 183.49C32.9276 182.638 32.4796 181.585 32.4796 180.331V168.637H32.5468C32.5468 166.307 32.9948 164.044 33.8909 161.849ZM96.327 183.893C92.3842 183.759 89.4046 182.84 87.3884 181.137C85.3722 179.39 83.916 177.441 83.0199 175.29C82.1238 173.095 81.6757 170.877 81.6757 168.637C81.6757 166.307 82.1014 164.067 82.9527 161.916C83.8488 159.721 85.305 157.771 87.3212 156.069C89.3822 154.321 91.9809 153.425 95.1173 153.381H116.893C120.029 153.425 122.605 154.321 124.622 156.069C126.683 157.771 128.139 159.721 128.99 161.916C129.886 164.067 130.334 166.307 130.334 168.637C130.334 170.877 129.886 173.095 128.99 175.29C128.094 177.441 126.638 179.39 124.622 181.137C122.605 182.84 119.626 183.759 115.683 183.893H96.327ZM94.8485 162.386C93.9972 162.386 93.2579 162.745 92.6306 163.462C92.0033 164.134 91.5329 164.94 91.2192 165.881C90.9504 166.777 90.816 167.673 90.816 168.57C90.816 169.51 90.9504 170.451 91.2192 171.392C91.5329 172.288 92.0033 173.095 92.6306 173.812C93.2579 174.484 93.9972 174.842 94.8485 174.887H117.161C118.013 174.842 118.752 174.484 119.379 173.812C120.007 173.095 120.455 172.288 120.723 171.392C121.037 170.451 121.194 169.51 121.194 168.57C121.194 167.673 121.037 166.777 120.723 165.881C120.455 164.94 120.007 164.134 119.379 163.462C118.752 162.745 118.013 162.386 117.161 162.386H94.8485ZM151.975 183.893C148.032 183.759 145.053 182.84 143.037 181.137C141.02 179.39 139.564 177.441 138.668 175.29C137.772 173.095 137.324 170.877 137.324 168.637C137.324 166.307 137.749 164.067 138.601 161.916C139.497 159.721 140.953 157.771 142.969 156.069C145.03 154.321 147.629 153.425 150.765 153.381H172.541C175.677 153.425 178.253 154.321 180.27 156.069C182.331 157.771 183.787 159.721 184.638 161.916C185.534 164.067 185.982 166.307 185.982 168.637C185.982 170.877 185.534 173.095 184.638 175.29C183.742 177.441 182.286 179.39 180.27 181.137C178.253 182.84 175.274 183.759 171.331 183.893H151.975ZM150.497 162.386C149.645 162.386 148.906 162.745 148.279 163.462C147.651 164.134 147.181 164.94 146.867 165.881C146.599 166.777 146.464 167.673 146.464 168.57C146.464 169.51 146.599 170.451 146.867 171.392C147.181 172.288 147.651 173.095 148.279 173.812C148.906 174.484 149.645 174.842 150.497 174.887H172.81C173.661 174.842 174.4 174.484 175.027 173.812C175.655 173.095 176.103 172.288 176.372 171.392C176.685 170.451 176.842 169.51 176.842 168.57C176.842 167.673 176.685 166.777 176.372 165.881C176.103 164.94 175.655 164.134 175.027 163.462C174.4 162.745 173.661 162.386 172.81 162.386H150.497ZM207.959 152.372C209.527 152.372 211.051 152.641 212.529 153.179C214.053 153.717 215.509 154.501 216.898 155.531C217.122 155.755 217.368 155.979 217.637 156.203C217.861 155.979 218.108 155.755 218.377 155.531C219.765 154.501 221.199 153.717 222.678 153.179C224.201 152.641 225.725 152.372 227.248 152.372C228.816 152.372 230.34 152.641 231.818 153.179C233.341 153.717 234.775 154.523 236.119 155.598C237.508 156.629 238.718 158.018 239.749 159.765C240.824 161.513 241.362 163.596 241.362 166.016V180.331C241.093 183.019 239.614 184.475 236.926 184.699C235.671 184.699 234.574 184.296 233.633 183.49C232.737 182.638 232.289 181.585 232.289 180.331V166.553C232.289 165.478 232.087 164.582 231.684 163.865C231.28 163.103 230.832 162.521 230.34 162.118C229.847 161.67 229.331 161.356 228.794 161.177C228.256 160.953 227.718 160.841 227.181 160.841C226.643 160.841 226.105 160.953 225.568 161.177C225.075 161.356 224.582 161.67 224.089 162.118C223.596 162.521 223.148 163.103 222.745 163.865C222.342 164.582 222.118 165.478 222.073 166.553V180.331C221.804 183.019 220.326 184.475 217.637 184.699C216.383 184.699 215.285 184.296 214.344 183.49C213.448 182.638 213 181.585 213 180.331V166.553C213 165.478 212.798 164.582 212.395 163.865C211.992 163.103 211.544 162.521 211.051 162.118C210.558 161.67 210.043 161.356 209.505 161.177C208.967 160.953 208.43 160.841 207.892 160.841C207.354 160.841 206.817 160.953 206.279 161.177C205.786 161.356 205.293 161.67 204.801 162.118C204.308 162.521 203.86 163.103 203.456 163.865C203.053 164.582 202.829 165.478 202.784 166.553V180.331C202.56 183.019 201.104 184.475 198.416 184.699C197.161 184.699 196.064 184.296 195.123 183.49C194.226 182.638 193.778 181.585 193.778 180.331V166.016C193.868 163.596 194.428 161.513 195.459 159.765C196.489 158.018 197.699 156.629 199.088 155.598C200.477 154.523 201.911 153.717 203.389 153.179C204.913 152.641 206.436 152.372 207.959 152.372Z" fill="#9CAEFF"/>
</svg>
